<svg height="495pt" viewBox="0 -31 495.99959 495" width="495pt" xmlns="http://www.w3.org/2000/svg"><path d="m128 8.5-120 208 120 208h240l120-208-120-208zm144 384h-48v-48h48zm0-80h-48v-272h48zm0 0" fill="#ffda44"/><path d="m224 40.5h48v272h-48zm0 0" fill="#414042"/><path d="m224 344.5h48v48h-48zm0 0" fill="#414042"/><g fill="#231f20"><path d="m121.070312 428.5c1.429688 2.476562 4.070313 4 6.929688 4h240c2.859375 0 5.5-1.523438 6.929688-4l120-208c1.425781-2.476562 1.425781-5.523438 0-8l-120-208c-1.429688-2.476562-4.070313-4-6.929688-4h-240c-2.859375 0-5.5 1.523438-6.929688 4l-120 208c-1.425781 2.476562-1.425781 5.523438 0 8zm11.546876-412h230.765624l115.386719 200-115.386719 200h-230.765624l-115.386719-200zm0 0"/><path d="m224 320.5h48c4.417969 0 8-3.582031 8-8v-272c0-4.417969-3.582031-8-8-8h-48c-4.417969 0-8 3.582031-8 8v272c0 4.417969 3.582031 8 8 8zm8-272h32v256h-32zm0 0"/><path d="m224 400.5h48c4.417969 0 8-3.582031 8-8v-48c0-4.417969-3.582031-8-8-8h-48c-4.417969 0-8 3.582031-8 8v48c0 4.417969 3.582031 8 8 8zm8-48h32v32h-32zm0 0"/></g></svg>